<?xml version="1.0" encoding="utf-8"?>
<!-- Generator: Adobe Illustrator 28.0.0, SVG Export Plug-In . SVG Version: 6.00 Build 0)  -->
<svg version="1.1" id="Ebene_1" xmlns="http://www.w3.org/2000/svg" xmlns:xlink="http://www.w3.org/1999/xlink" x="0px" y="0px"
	 viewBox="0 0 256 256" style="enable-background:new 0 0 256 256;" xml:space="preserve">
<style type="text/css">
	.st0{fill:none;}
	.st1{fill:#8C1818;}
	.st2{opacity:0.4;fill:#FFFFFF;}
	.st3{fill:#FFFFFF;}
</style>
<path class="st0" d="M872.8,373.2h104.5v104.5H872.8V373.2z"/>
<path class="st0" d="M872.8,373.2h104.5v104.5H872.8V373.2z"/>
<g>
	<rect class="st1" width="256" height="256"/>
	<g>
		<path class="st2" d="M126.3,185.5c0-33.5,27.2-60.7,60.7-60.7c5.5,0,10.8,0.7,15.9,2.1V61.4c0-9-7.3-16.4-16.4-16.4H59.8
			c-9,0-16.4,7.3-16.4,16.4v126.8c0,9,7.3,16.4,16.4,16.4h69.6C127.4,198.5,126.3,192.1,126.3,185.5z M82.9,182.9v-2.7l63.3-113.5
			h17.4v2.6l-62.9,113.7H82.9z"/>
		<g>
			<path class="st3" d="M187,140c-25.1,0-45.5,20.4-45.5,45.5c0,25.1,20.4,45.5,45.5,45.5c25.1,0,45.5-20.4,45.5-45.5
				C232.5,160.4,212.1,140,187,140z M205.1,206.6c0,3.3-2.7,6-6,6h-24.1c-3.3,0-6-2.7-6-6v-36.2h36.2V206.6z M208.2,167.4h-42.3v-6
				h10.6l3-3h15.1l3,3h10.6V167.4z"/>
		</g>
	</g>
</g>
</svg>
